<svg width="660" height="660" viewBox="0 0 660 660" fill="none" xmlns="http://www.w3.org/2000/svg">
  <defs>
    <filter id="shadow" x="-20%" y="-20%" width="160%" height="180%">
      <feDropShadow dx="0" dy="18" stdDeviation="18" flood-color="#27405A" flood-opacity="0.18"/>
    </filter>
  </defs>

  <g filter="url(#shadow)">
    <rect x="84" y="96" width="492" height="396" rx="26" fill="#FFFDFA" stroke="#2F3F55" stroke-width="22"/>
  </g>

  <circle cx="254" cy="294" r="38" fill="#F06971"/>
  <circle cx="330" cy="294" r="38" fill="#F4CB64"/>
  <circle cx="406" cy="294" r="38" fill="#98D9A5"/>

  <g filter="url(#shadow)">
    <path d="M238 526L476 392C495 381 518 388 529 407L548 440C559 459 552 483 533 494L295 628C270 642 239 634 224 610C208 585 214 541 238 526Z" fill="#F39D62"/>
    <path d="M511 417L595 362L555 514L478 435L511 417Z" fill="#394A63"/>
  </g>
</svg>
